<?xml version="1.0" encoding="UTF-8"?>
<svg id="Amilk" xmlns="http://www.w3.org/2000/svg" viewBox="0 0 324.92 790.15">
  <defs>
    <style>
      .cls-1 {
        fill: none;
        stroke: #000;
        stroke-miterlimit: 10;
        stroke-width: 3px;
      }
    </style>
  </defs>
  <path class="cls-1" d="M283.17,776.96c-6.92,2.18-38.11,11.02-80.07,7.84-.12,0-.24-.01-.36-.01l-125.13,1.32c-.15,0-.28,0-.42.02-2.62.27-30.64,2.72-42.97-15.63-12.73-18.93-19.04-131.16-19.26-135.06,0-.07,0-.13,0-.2-.02-7.39-1-418.75-1.66-426.65-.66-7.92,1.63-24.37,42.73-61.4.54-.49.97-1.1,1.23-1.79,1.49-3.92,5.97-18.53,2.43-44.67-.14-1.01-.61-1.96-1.33-2.68l-2.3-2.3c-.8-.8-1.28-1.86-1.35-2.99l-.54-8.85c0-.13-.01-.26,0-.38l.19-8.77-.27.33-.37-4.61.21-6.6-.21-1.95.04-5.27c.02-.74.35-1.62.83-2.41.86-1.41,1.19-3.08.82-4.69l-.07-.33c1.67-1.28.06-2.92-.75-4.86l1.49-17.02c.08-4.65,8.84-7.44,11.71-8.01,19.34-3.86,78.03-14.96,113.91-11.66,41.03,3.77,78.54,7.14,84.6,21.01,4.49,10.27,2.24,17.44,2.24,17.44l-1.93,3.54c-1.05,1.93-.61,4.33,1.07,5.75h0c1.3,1.1,1.89,2.83,1.53,4.5l-.44,2.06c-.37,1.73.28,3.52,1.67,4.62l.99.78c1.06.83,1.71,2.08,1.78,3.44.11,2.27-.49,5.82-4.26,9.22-1.17,1.05-1.65,2.65-1.36,4.2.52,2.76.79,7.18-1.67,10.6-2.16,3-3.27,4.71-3.83,5.63-.35.59-.56,1.21-.63,1.89-.42,4.25-1.9,22.39,1.68,39.11.18.86.61,1.63,1.22,2.26,5.52,5.63,33.89,34.76,38.05,43.64,4.36,9.3,10.5,46.34,11.15,50.34.04.24.06.47.06.71l2.74,416.58c0,.17.01.35.03.52.53,4.52,7.22,68.22-30.86,119.82-.58.79-1.39,1.36-2.33,1.66Z"/>
  <path class="cls-1" d="M268.43,98.62s-74.85-37.61-211.95-1.67"/>
  <path class="cls-1" d="M61.46,104.92s11.4-11.7,16.88-13.36"/>
  <path class="cls-1" d="M270.3,46.12s-99.13-25.16-213.21,3.11"/>
  <path d="M270.68,619.58c0,57.85-46.89,104.74-104.74,104.74s-104.74-46.89-104.74-104.74c0-87.47,75.45-200.05,104.74-200.05,26.36,0,104.74,110.02,104.74,200.05Z"/>
</svg>