<?xml version="1.0" encoding="UTF-8"?>
<svg id="Isolation_Mode" data-name="Isolation Mode" xmlns="http://www.w3.org/2000/svg" viewBox="0 0 337.85 276.92">
  <path d="M297.74,199.79,297.62,199.45c4.32-25.64-38.15,2.68-46.88,5.93-7.13,5.09-15.48,6.4-22.73,10.85-6.2,4.93-10.52,12.7-10.55,20.31-.36,5.67,1.31,10.82-2.05,16.41-4.59,8.46-16.73,9.77-24.11,12.55-4.1,1.86-11.13,3.56-17.59,3.1-10.25-.04-18.4,2.03-28.35-5.1-10.49-5.35-1.13-18.67-10.85-24.13-4.48-3.22-11.02-5.23-17.67-5.51-3.9-.21-6.74-2.12-7.83-6-.82-2.34-2.18-2.14-4.97-1.13-14.06,3.22-29.84-4.37-44.4-2.23-15.7,1.55-9.32,22.35-22.14,26.13-10.32,1.9-31.21,4.63-28.34-10.41,8.25-44.78,10.38-91.98,20.32-136.22,3.53-19.21,15.98-30.68,33.01-40.26,29.55-23.52,62.47-42.26,97.74-56.69,16.52-4.85,33.34.1,50.46-1.14,25.09,3,49.58,10.57,73.2,19.37,4.34,1.92,8.23,3.88,10.22,7.83,5.63,20.84,16.5,47.17,19.64,68.98,5.4,14.78,7.49,31.39,10.2,46.86,3.8,12.55,6.1,24.74,6.53,37.86-.01,14.45-15.63,13.18-24.89,20.61M297.74,199.79c-.04-.11-.09-.22-.12-.33M182.26,36.93c-6.7-2-10.56,3.55-8.44,9.95,1.63,1.34,5.71-2.52,6.57-3.96.51-.85-.16-2.33.11-3,.54-1.35,2.69-.52,1.76-3ZM243.19,34.37c.69-.49,5.28-1.96,2.46-3.22h-6.2s.43,5.13.43,5.13c3.07.67,2.59-1.4,3.3-1.9ZM272.06,38.81c3.03.97,6.71-3.32,3.26-3.41-.72-.02-2.46,1.24-4.01,1.34-1.44.09-6.19-1.08-6.63,1.21-.71,3.69,3.13,3.03,2.65,6.35l4.89-1.57-.16-3.92ZM87.69,65.47l-3.86.3.08,2.84c-.94,1.12-6.23-1.19-4.87,2.57l10.22-.85-1.57-4.87ZM269.9,80.58c-8.14-2.48-21.95-.27-29.25,4.17-5.01,3.04-12.93,13.81-15.33,15.28-1.22.75-3.5.27-3.78.6-.28.33.57,2.5.03,3.82-.25.62-4.83,4.59-5.71,5.94-5.44,8.38-4.75,16.29-6.3,25.31-.36,2.09-2.35,1.59-2.42,3.63-.3,8.35,1.81,33.83,3.62,41.89.48,2.13,4.76,11.16,6.6,11.39,3.09.38,2.02-1.98,2.99-2.29,5.91-1.89,9.53-1.01,16.66-4.57,12.22-6.11,23.74-14.89,37.57-19.51.95-.32.7-1.77,1.3-2.13,5.22-3.12,8.77-4.08,12.61-9.56-1.22-12.52-.85-25.67-2.86-38.1-1.2-7.37-4.98-15.36-6.87-21.27-.74-2.3,0-5.33-.72-7.75-.32-1.08-6.74-6.41-8.15-6.84ZM159.11,105.77l-9.2.76-1.03,12.44c3.75-.49,4.58-1.83,3.66-5.45l5.13-.41c.01-1.45-.59-3.07-.4-4.46.15-1.11,3.14-.29,1.84-2.87ZM102.19,118c-1.42-.52-19.33.86-21.82,1.39-1.87.4-1.18,2.02-2,2.28-2.56.83-6.23-.06-8.8.79-.67.22-.6,1.53-.93,1.71-1.17.63-2.69.57-3.59,1.29-8.56,6.91-10.25,19.51-13.19,29.53-1.77,6.02-1.79,10.54-2.87,16.78-1.19,6.93-3.51,14.29-1.04,21.75.25.75,1.86.45,2.13,1.25.42,1.28-.14,3.64.53,4.28.3.29,3.15-.48,3.64,1.88l2.02-.15c1.38-5.42,2.59-.38,3.21-.27,1.87.32,4.69-.72,6.97-.55,7.89.59,19.12,3.89,26.39,4.96,8.58,1.27,19.13,1.69,27.02,2.92,2.88.45,7.04-1.04,10.1-.89,1.69.08,2.24,3.41,8.1,1.44.75-.25.41-1.79,1.28-2.1,1.06-.38,2.75.06,3.57-.39,4.1-2.22,1.65-6.54,2.07-9.71.11-.82,1.84-.42,1.93-2.33.34-7.17-2.56-47.11-4.49-53.05-.26-.81-1.88-.12-2.28-2-.71-3.3.09-7.94-.87-11.1-.11-.37-5.43-5.01-5.8-5.12-3.57-1.08-12.5-3.85-16.09-4.04-6.75-.36-8.64,1.85-15.19-.53ZM155.33,147.27l-7.16.58.6,7.16c3.5.83,1.92-4.4,2.77-5.26.99-1.02,4.94,1.12,3.79-2.48ZM264.49,184.59c-2.05-.37-2.52,2.28-4.27,2.27-1.52,0-3-2.19-4.92-1.51l.34,4.1c-5.03-1.11-6.95,3.53-6.57,7.74,2.85.67,1.41-1.78,2.59-2.25,3.61-1.43,5.84-3.2,6.95-3.66,3.32-1.36,7.2-.53,5.89-6.69Z"/>
  <rect x="159.66" y="26.3" width="41.63" height="41.63" transform="translate(35.59 -70.36) rotate(24.4)"/>
  <rect x="75.27" y="56.58" width="41.63" height="41.63" transform="translate(40.56 -32.79) rotate(24.4)"/>
  <rect x="148.42" y="80.07" width="41.63" height="41.63" transform="translate(56.81 -60.91) rotate(24.4)"/>
  <rect x="152" y="122.56" width="41.63" height="41.63" transform="translate(74.68 -58.59) rotate(24.4)"/>
  <rect x="145.55" y="82.7" width="41.63" height="41.63" transform="translate(57.64 -59.49) rotate(24.4)"/>
  <rect x="222.3" y="18.01" width="41.63" height="41.63" transform="translate(37.76 -96.98) rotate(24.4)"/>
  <rect x="241.19" y="24.2" width="41.63" height="41.63" transform="translate(42.01 -104.23) rotate(24.4)"/>
  <rect x="233.15" y="186.14" width="41.63" height="11.32" transform="translate(-51.24 101.59) rotate(-20.6)"/>
</svg>