<?xml version="1.0" encoding="UTF-8"?>
<svg id="_12" data-name="12" xmlns="http://www.w3.org/2000/svg" viewBox="0 0 636.92 444">
  <defs>
    <style>
      .cls-1 {
        fill: #ce3f32;
      }
    </style>
  </defs>
  <path class="cls-1" d="M39.95,267.62c-8.18,22.79-27.26,27.99-35.78,27.75-2.19-9.01-.58-28.48,23.37-34.32,4.87-3.9,16.07-18.7,21.91-46.74-.49-28.48,2.07-88.08,5.84-102.24,5.84-21.91,27.02-62.07,97.86-73.03,31.64-3.41,112.03-5.55,180.38,13.15,27.75-4.63,89.83-11.1,116.12,0,8.52,1.22,28.04,1.02,37.98-9.49-5.6-5.11-14.9-18.26-7.3-29.94,7.6-11.68,30.43,0,40.9,7.3l.12-.09c6.09-4.63,15.26-11.6,31.29-11.6,10.95,0,21.91,5.84,27.02,10.95,7.55-4.63,23.22-13.88,25.56-13.88,2.92,0,13.88-1.46,25.56,5.11,11.68,6.57-9.49,34.32-22.64,35.05.73,9.49-5.11,18.26-2.92,23.37,1.75,4.09,5.6,11.44,7.3,14.61,10.95,11.68,20.45,20.45,14.61,37.98-5.84,17.53-33.59,19.72-40.9,17.53-7.3-2.19-14.61-9.49-16.8-2.92-1.75,5.26-23.13,4.14-33.59,2.92,1.7,2.43,4.09,11.39,0,27.75-5.11,20.45-20.45,94.21-40.17,103.7-15.77,7.6-33.35,26.05-40.17,34.32.73,10.22,2.19,11.68-2.92,26.29-8.11,23.17-1.46,64.27,9.49,70.84,8.76,5.26,7.06,17.77,5.11,23.37-7.06,0-22.2-.15-26.29-.73-4.09-.58-5.11-7.55-5.11-10.95-4.09-.58-7.06-4.63-8.03-6.57-2.92-12.27-5.6-47.47-6.57-63.54-12.41,44.55-4.38,64.02,0,67.19,3.41,3.9,8.91,13.29,3.65,19.72-5.26,6.43-21.67-.73-29.21-5.11,1.22-.97,2.48-3.94-2.19-8.03-5.84-5.11-2.19-.73-6.57-15.34-4.38-14.61,10.22-38.71,4.38-43.82-5.84-5.11-5.84-24.1-4.38-53.31,1.17-23.37-35.05-31.65-53.31-32.86-50.24,19.86-107.6,16.07-129.99,11.68-9.01,7.3-29.5,26.29-39.44,43.82-9.93,17.53,6.08,51.61,15.34,66.46,12.41,7.3,16.07,32.86,14.61,34.32-1.46,1.46-25.56,5.11-27.02,3.65-1.17-1.17-2.92-6.82-3.65-9.49-2.92,1.17-6.57-6.33-8.03-10.22-.73-16.8-42.36-102.24-46.01-100.05-3.65,2.19-12.41,23.37-16.07,29.94-3.65,6.57-.73,63.54,3.65,64.27,4.38.73,8.76,24.1,5.11,27.75-3.65,3.65-24.1-.73-27.02-1.46-2.34-.58-3.41-10.47-3.65-15.34-5.6-1.95-15.19-8.76-8.76-20.45,6.43-11.68-6.09-72.54-13.15-101.51,36.22-31.55,25.32-116.12,15.34-157.74-3.65,94.94-14.61,101.51-24.83,129.99Z"/>
</svg>