<?xml version="1.0" encoding="UTF-8"?>
<svg id="Houses" xmlns="http://www.w3.org/2000/svg" viewBox="0 0 240 328.62">
  <defs>
    <style>
      .cls-1 {
        fill: #f8f8f7;
        stroke: #4454a0;
      }

      .cls-1, .cls-2 {
        stroke-miterlimit: 10;
      }

      .cls-2, .cls-3 {
        stroke: #f8f8f7;
      }
    </style>
  </defs>
  <circle class="cls-1" cx="125.82" cy="205.85" r="87.41"/>
  <g>
    <path d="M216.59,12.12c7.55,0,13.67,6.12,13.67,13.67v280.23c0,7.55-6.12,13.67-13.67,13.67H25.77c-7.55,0-13.67-6.12-13.67-13.67V25.79c0-7.55,6.12-13.67,13.67-13.67h190.82ZM119.39,130.14c-39.5,0-71.53,32.02-71.53,71.53s32.02,71.53,71.53,71.53c39.5,0,71.53-32.02,71.53-71.53s-32.02-71.53-71.53-71.53Z"/>
    <circle class="cls-3" cx="119.39" cy="205.24" r="20.77"/>
    <circle class="cls-2" cx="119.39" cy="205.24" r="14.31"/>
  </g>
</svg>