<?xml version="1.0" encoding="UTF-8"?>
<svg xmlns="http://www.w3.org/2000/svg" viewBox="0 0 772.62 360">
  <defs>
    <style>
      .cls-1 {
        fill: none;
        stroke: #000;
        stroke-miterlimit: 10;
        stroke-width: 3px;
      }
    </style>
  </defs>
  <g id="underbgt">
    <path class="cls-1" d="M577.59,314.52c-.37-1.89.65-6.32-.16-7.6-1.03-1.62-13.01-4.24-16.52-6.29-.74-.43-10.86-9.87-11.16-10.58-1.74-4.13,1.96-3.21,1.69-5.08l-1.98-3.4c5.96-3.85,11.49-.79,16.97-.9,3.02-.06,5.64-1.05,8.68-1.1,5.62-.09,30.73-.78,33.85.97l2.6,14.88c2.85,7.45,5.89,14.73,10,22.65,4.57,8.79,17.87,19.81,28.38,25.45,3.42,1.83,10.85,5.83,13.69,6.86,5.55,2.02,10.32.86,15.11,1.99.79.19.26,1.76,2.06,1.99,3.69.48,15.83.48,19.53,0,1.8-.23,1.28-1.83,2.05-2,2.01-.44,4.45.41,6.44-.04.71-.16.59-1.75,1.32-1.91,27.97-6.13,43.27-23.05,53.74-49.68.4-1.02,3.66-6.8,3.77-7.25.59-2.45-.54-5.89.04-8.37.18-.78,1.76-.26,1.99-2.06.44-3.36.44-14.23,0-17.59-.23-1.79-1.81-1.27-1.99-2.06-.58-2.48.55-5.91-.04-8.36-.52-2.17-4.1-9.76-5.49-13.13-7.17-17.29-18.66-29.86-35.84-38.31-22.17-10.9-38.96-11.84-64.64-5.44-.88.22-.35,3.15-4.32,1.6-2.46-.96-6.95-13.91-8.61-17.06-2.13-4.04-5.3-8.22-7.42-11.98-2.67-4.74-7.84-18.32-12.57-20.36-3.26-1.41-6.05-.14-8.79-.75-.76-.17-.22-1.71-2.07-2-4.91-.77-4,1.86-5.8,2.09-10.32,1.33-25.99-4.07-34.82-7.5-3.95-1.53-6.6-2.23-7.37-7.67-1.66-11.66-.77-25.16-2-36.79-.43-4.11-2.78-8.89-6.27-11.2-1.39-.92-3.14-.63-4.08-1.27-1.92-1.3-3.86-3.58-6.49-5.12-.85-.5-5.8-1.86-6.52-2.88-1.91-2.75-2.53-11.25-.78-14.32,1.05-1.85,9.1-7.17,11.29-8.65,3.4-6.47,8.95-14.65,7.77-22.26-.63-4.04-6.45-16.4-10.24-18.08-3.87.47-6.5-2.69-9.72-3.66-10.09-3.03-17.75-1.71-27.8-2.27-4.03-.22-8.13-2.98-12-.81-.41.66-.35,4.93-.12,5.97.18.82,1.64.79,1.91,1.34,1.38,2.75,1.29,6.31.75,9.29-.24,1.31-4.01,9.19-4.87,10.09-1.7,1.77-5.33,1.45-5.65,5.57-.4,5.26,1.85,3.99,2.09,5.83,1.08,8.29-3.06,16.31,5.72,22.37,0,2.16-10.25,3.52-12.78,4.47-2.41.9-14.47,7.91-16.93,9.87-.56.45-.45,2.24-1.87,3.5-5.87,5.2-14.85,5.01-22.16,3.92-12.42-1.86-25.59-6.27-34.54-12.81-7.14-5.22-9.44-9.17-19.03-4.23-3.04,1.57-6.64,10.33-5.41,13.92,2.62,7.64,8.03,6.98,15.29,8.01,14.1,1.99,16.73,3,29.25,8.1,3.14,1.28,17.97,7.43,21.17,7.43h16c1.27,2.93.25,4.31-1.11,6.93-4.36,8.41-10.61,14.62-15.33,21.94-.64.99-3.72,7.06-3.78,7.68-.14,1.64,2.97,3.33,3.53,5.84.71,3.21-.54,6.74,1.08,9.88l-9.71,2.61c-.89,7.3-3.56,17.03,3.69,21.23-.6,1.69-5.11,11.64-5.67,11.99-.67.42-5.86.39-6.94.13-.71-.17-.56-1.68-1.35-1.88-43.89-11.17-79.78,11.94-95.65,51.05-5.02,12.37-7.04,31.11-3.53,46.2.17.72,1.75.59,1.91,1.32,5.57,25.37,26.95,47.04,53.14,55.32,14.16,4.47,26.26,4.54,41.48,2.28,14.39-4.98,30.28-12.43,41.78-24.65.95-1.01.82-2.81,1.58-3.35.58-.42,2.17.06,2.49-.31.46-.52-.09-2.33.44-3.49.23-.5,2.83-1.82,3.28-2.52,6.43-10.27,8.77-21.06,11.73-32.41.77-2.93-1.04-6.84,4.37-5.91,6.23,1.07,9.57,9.65,18.85,4.95,2.14-1.08,2.65-4.56,5.12-4.14-1.26,4.56,1.94,3.62,1.94,3.88v28.12c0,.08,1.08-.17,1.59.35.51.51.26,1.59.35,1.59h50.43ZM541.95,136.38c6.69-2.33,5.23,1.5,7.56,4.78,2.02,2.84,5.02,6.19,7.32,8.91,14.92,17.57,37.43,11.56,55.91,18.05.83.29.69,1.53,1.47,1.82,1.6.59,8.26,1.25,8.82,2.15,1.58,6.07-1.62,7.19-7.09,7.68-22.42,2.03-48.52-1.19-71.29-.58l-23.41-20.34.77-2.43c3.97-2.01,17.8-19.3,19.93-20.05ZM559.16,196.21h50.43c.39,3.25-.24,5.63-1.66,8.48-4.54,9.11-11.83,19.72-16.73,28.12-4.54,7.77-8.59,16.83-13.34,24.23-.76,1.19-2.08,1.65-2.68,3.18-4.12-1.7-13.29-18.68-16.05-23.51-.38-.67-3.72-4.97-3.81-5.32-.49-1.95,1.18-4.63-1.96-4.16v-.94c3.71-2.09,9.01-6.99,9.62-11.23,1.04-7.24-3.37-12.04-3.81-18.85ZM631.05,198.28l6.65-.12c-.88,4.43,4.68,5.74,3.9,10.94-5.58,5.25-12.26,10.38-16.82,16.44-4.54,6.04-7.84,13.39-9.4,20.43-.35,1.56-4.91,10.85-5.77,13.05-.33.84.09,2.15-.04,3.12l-11.48-.13c-3.2-4.8.63-6.16,1.46-7.93,6.53-13.96,14.72-26.25,21.98-38.69l9.51-17.11ZM461.6,202.45c4.18-2.76,20.42-3.48,25.12-2.33.65.16.67,1.45,1,1.58,1.14.46,2.54.18,3.26.64.74.47,11.86,11.49,12.5,12.28.5.62,1.42,1.01,1,2-.88,3.44-8.01,5.99-10.52,7.76-1.75,1.23-5.08,5.11-7.25,5.74-5.16,1.48-3.77-1.56-5.13-3.12-2.55-2.91-6.2-5.33-8.1-9.11l-14.18-12c-.76-1.16,1.65-3.01,2.3-3.44ZM383.08,218.95c15.18-8.1,35.78-12.86,51.88-5.2,1.11,2.68-1.36,2.7-1.55,3.12-5.57,12.56-11.93,23.68-18.47,36.31-.46.88-3.79,5.07-4.07,5.86-1.34,3.87-3.95,17.82-.1,20.1h64.96c3.31,1.47,3.63,7.38,2.9,10.46-.33,1.4-4.61,8.92-5.45,10.69-18.65,39.08-66.53,49.42-100.16,21.29-22.47-18.8-28.68-54.2-13.5-79.92,2.03-3.44,6.39-5.59,5.69-9.56h3.89s0-3.88,0-3.88c4.27,1.12,5.71-3.69,8.5-5.77,1.09-.81,4.3-2.86,5.49-3.5ZM668,213.89c3.25-3.11,24.32-3.53,29.33-3.12,22.22,1.83,44.19,20.68,51.56,40.56,9.66,26.06,2.54,52.71-17.52,70.57-2.23,1.99-2.36,2.63-3.79,4.01-.59.57-12.9,6.85-14.35,7.39-28.66,10.69-56.73,2.24-74.83-20.77-6.45-8.19-15.56-23.55-10.73-33.93l60.46.04c.01-10.23,2.08-15.83-2.05-25.6-3.74-8.87-10.13-17.49-14.33-25.64-1.7-3.3-6.96-10.45-3.77-13.51ZM476.73,262.15h-45.58c-.28-2.4.06-4.27.76-6.55.64-2.08,4.41-6.43,5.34-8.23,3.57-6.91,6.91-14.09,10.66-20.37,2.02-3.37.91-6.51,7.23-4.31.77.27,10.74,10.71,11.47,11.72,3.54,4.81,9.58,17.09,10.48,23.11.27,1.86.2,2.85-.37,4.64ZM667.77,262.15h-39.76c-1.03-10.13,7.64-23.85,13.96-31.65,2.07-2.56,8.89-7.94,11.03-3.47,3.83,7.98,13.13,21.05,15.33,29.3.65,2.43.02,3.61-.56,5.83ZM519.4,245.18c1.11,3.94-.81,12.42,0,16.97l-6.66-.12c-.89-4.5-5.24-11.68-2.14-15.95,1.6-2.2,7.73-4.73,8.8-.89Z"/>
  </g>
  <g id="_12" data-name="12">
    <path class="cls-1" d="M198.86,64c-2.41.45-3.52,1.96-5.89,1.48-1.45-.13-2.95.15-4.42.21-1.2.11-2.13.67-3.13,1.22-1.14.65-2.42,1.06-3.5,1.81-2.19,2.57-2.5,6.36-3.93,9.48-.67,1.51-1.65,2.73-2.48,4.12-1.82,3.29-2.44,7.28-2.48,11.4-.15,5.47.45,11.32,3.79,15.66,1.18,1.75,2.39,3.56,3.69,5.22,1.51,1.65,3.23,3,4.33,5.03,2.8,4.72.9,7.5-4.48,6.17-4.02-.51-7.85-2.08-12.03-2.13-10.27.1-20.5-.27-30.77-.34-4.47-.01-9.24,1.07-13.24,2.21-1.09.28-2.36.06-3.26.21-1.59.37-3.25.65-5.09.78-9.41,1.17-13.41-.67-19.37,8.28-2.82,3.19-5.13,6.33-7.35,10.03-1.18,1.56-2.44,3.05-3.46,4.64-3.06,6.61-6.69,13.06-12.25,17.96-2.09,2.5-4.11,6.33-3.06,9.54.63,1.62,2.03,1.8,3.51,3.06,2.15,1.89,3.29,5.09,5.89,5.82,2.26.02,5.02-.64,7.04-1.85,2.04-1.21,4.21-2.35,5.52-4.38,2.47-4.3-2-9.12-.58-13.43,1.36-3.87,3.91-4.64,6.58-7.05,2.21-2.51,4.69-4.72,7.15-7,2.13-2.14,4.05-4.32,6.64-5.77,5.61-2.67,11.93.6,17.37,2.29,3.85,1.22,7.73,2.1,11.47,3.69,1.44.5,3,1.05,4.07,2.16,3.48,3.59,1.11,9.48-1.82,12.5-1.35,1.8-3.06,2.17-4.81,3.82-3.06,2.73-6.65,4.99-10.21,7.03-2.23,1.13-5,1.63-7.53,2.13-3.14.77-7.28.85-9.54,3.19-3.24,4.21-1.82,11.5-3.42,16.39-.45,1.52-1.26,2.62-2.26,3.75-1.37,1.58-2.79,3.58-3.94,5.47-1.1,1.82-2.24,3.48-3.5,5.13-1.72,1.89-3.77,3.38-5.14,5.61-3.6,4.93-6.53,9.95-10.99,14.19-3.01,2.81-5.52,6.13-9,8.4-2.7,1.82-6.11.85-8.43-1.19-2.27-1.68-4.67-3.27-7.26-4.53-2.79-1.15-5.58-2.5-8.1-4.07-3.76-1.52-7.06-4.01-9.71-6.91-.96-1.27-2.13-2.21-3.27-3.26-1.05-1.62-2.07-3.35-3.89-4.29-2.45-1.55-5.05-3.31-8-3.27-2.04.59-3.8,2.21-5.27,3.84-6.43,7.63-5.68,13.27-8.28,22.05-1.28,4.23-2.85,8.41-4.22,12.59-.87,2.32-.97,4.52-.14,6.85,1.28,4.68,6.81,5.78,9.9,2.26,1.93-3.47,5.12-5.73,7.24-9.12,7.22-10.06,18.81,1.3,24.65,7.26,2.32,2.46,5.35,4.14,8.21,5.9,3.28,2.2,6.47,4.41,9.85,6.35,1.78,1.15,3.92,1.73,5.82,2.72,3.55,2.04,7.23,3.66,11.36,4.02,8.8,0,14.88-6.47,22.12-10.48,1.88-1.29,4.04-2.16,6.03-3.19,1.63-1.05,3.41-1.82,5.24-2.48,5.33-2.91,8.26-4.78,14.68-4.76,6.2.04,12.53-.63,17.92,2.29,2.22,1.51,4.97,2.92,7.46,4.1,1.79,1.1,2.92,2.17,4.64,3.09,2.2,1.67,4.68,3.55,6.93,5.34,3.03,2.17,6.4,3.91,9.42,6.04,3.28,2.81,6.07,6.21,9.15,9.23,2.38,2.95,4.13,6.36,6.33,9.45,2.37,3.15,4.83,5.95,6.81,9.22,1.57,1.65,3.06,4.16,4.04,6.37,1.93,3.22,5.12,5.71,7.88,8.05,1.86,1.61,2.2,3.51,3.74,5.43,1.66,2.26,3.67,4.19,5.16,6.72,5.28,7.04,7.41,19.86,18.1,20.06,3.75-.14,7.17-1.76,10.25-3.72,2.22-.99,4.91-2.27,6.91-3.31,3.26-1.12,5.61-2.1,8.6-4,3.03-1.78,6.17-3.48,9.01-5.54,1.74-1.17,2.89-2.96,4.49-4.29,4.23-3.56,4.88-8.14-1.41-9.48-4.59-1.04-8.41,2.13-12.88,2.44-5.06.28-11.33.58-16.52-.36-4.27-.8-7.65-3.48-11.19-5.86-3.05-2.44-5.91-5.54-7.98-8.81-1.08-2.26-1.6-5.5-3.08-7.84-1.2-2.61-1.86-6.16-3.02-8.48-.73-1.69-1.75-2.45-2.23-4.32-.42-1.51-.7-3.29-1.04-4.88-.78-3.99-2.13-8.09-3.66-11.65-.86-2.46-1.86-4.33-3.7-6.25-1.63-1.92-3.14-3.95-4.68-6.04-1.95-2.59-3.51-5.48-5.42-8.07-1.66-1.98-3.59-3.62-5.27-5.66-1.57-1.94-2.81-4.2-4.36-6.11-1.89-2.62-3.93-4.93-5.95-7.44-1.78-1.7-3.95-3.89-5.54-5.73-2.12-2.11-3.05-5.21-1.79-8.07,1.72-3.45,4.99-6.16,7.72-8.9,3.59-3.61,7.12-7.29,10.8-10.8,5.11-5.49,10.25-10.67,18.13-11.44,2.44-.31,4.52.95,7.07.82,3.13.17,5.28-1.77,8.22-2.26,2.86-.4,7.02.09,9.74.61,2.14.59,3.81,1.53,6.14,1.76,8.85,1.33,16.19,1.42,21.22-7.23,1.64-2.31,3-4.86,4.65-7.17,1.9-2.44,3.14-5.2,4.15-8.1,2.01-5.84,2.83-5.88,7.22-9.63,1.85-1.38,2.37-3.54,2.12-5.82.03-1.97-.67-3.63-1.97-5.23-1.94-2.2-3.11-5.29-4.08-8.07-.65-1.1-.2-3.84-1.78-2.87-2.64,1.59-5.95,2.55-8.41,4.39-4.46,3.62-3.23,10.69-4.59,15.68-.55,2.64-1.98,4.03-4.1,5.21-1.9,1.12-3.47,2.29-5.72,3.08-5.38,2.31-11.28.5-15.88-2.73-3.21-1.86-5.73-4.47-8.39-7-3.91-4.15-8.17-8-12.18-12.04-1.6-1.85-2.41-4.39-.9-6.39.58-.78,1.67-1.19,2.8-1.38,2.03-.29,5.1-.73,7.58-.73,4.1-.24,11.74.58,14.29-2.56,3.88-3.77,5.23-6.47,5.27-12.47.06-4.67.09-10.33-.39-14.75-.06-2.7-1.71-3.82-2.3-6.3-.93-2.39-1.98-4.82-2.87-7.48-1.57-3.2-2.85-6.44-3.92-9.76-.5-2.28,0-4.79.64-7.14.5-2.13,1.83-4.67-.54-6.13-2.04-1.18-5.3-1.19-8-1.14-3.36-.05-6.84.17-10.14-.31-3.83-.64-5.75-2.07-9.27-2.63-3.83-.84-8.39-.12-12.05.56h-.04Z"/>
  </g>
</svg>