<?xml version="1.0" encoding="UTF-8"?>
<svg id="Isolation_Mode" data-name="Isolation Mode" xmlns="http://www.w3.org/2000/svg" viewBox="0 0 393.23 162.46">
  <defs>
    <style>
      .cls-1, .cls-2 {
        fill: none;
        stroke: #000;
        stroke-width: 2.5px;
      }

      .cls-2 {
        stroke-miterlimit: 10;
      }
    </style>
  </defs>
  <path class="cls-2" d="M11.44,122.64c-1.97-14.18.86-42.97,28-44.69,20.25-1.29,26.77-1.45,27.88-1.3l5.51-3-1.08-1.62,8.61-4.31,1.62,2.15,11.31-3.77c2.51-2.51,8.18-7,10.77-4.85,2.58,2.15,4.31.18,4.85-1.08.54-1.08,2.26-3.45,4.85-4.31,2.58-.86,5.38.36,6.46,1.08,3.05-1.62,9.48-5.6,10.77-8.62l5.38-.54v1.62l8.08-3.77v-2.15l9.15-4.31v2.69l7.54-3.77c1.08-2.15,4.52-6.14,9.69-4.85,1.26-.18,4.31-.97,6.46-2.69,1.26-2.15,4.63-6.46,8.08-6.46.54,0,1.72.43,2.15,2.15,12.2-6.46,37.37-19.49,40.38-19.92,3.77-.54,14,7,14.54,17.23-1.08,2.51-3.66,7.97-5.38,9.69,1.26,3.77,6.57,12.38,17.77,16.69,14,5.38,37.69,12.38,75.92-2.15,8.08-5.38,21.52-20.46,28.54-20.46,8.61,0,9.96,6.46,11.31,9.15,2.51,5.03,7.54,17.01,7.54,24.77,3.41,10.23,8.94,33.71,3.77,45.77,3.02,4.31,1.97,8.61,1.08,10.23.86,2.15.36,17.77,0,25.31-5.6,9.91-27.1,10.23-37.15,9.15-34.46-1.29-190.25-2.33-263.83-2.69-45.66-4.31-66.05-19.38-70.53-26.38Z"/>
  <path class="cls-1" d="M11.44,122.64c-1.97-14.18.86-42.97,28-44.69,27.14-1.72,29.61-1.44,27.46-1.08l5.92-3.23-1.08-1.62,8.61-4.31,1.62,2.15,11.31-3.77c2.51-2.51,8.18-7,10.77-4.85,2.58,2.15,4.31.18,4.85-1.08.54-1.08,2.26-3.45,4.85-4.31,2.58-.86,5.38.36,6.46,1.08,3.05-1.62,9.48-5.6,10.77-8.62l5.38-.54v1.62l8.08-3.77v-2.15l9.15-4.31v2.69l7.54-3.77c1.08-2.15,4.52-6.14,9.69-4.85,1.26-.18,4.31-.97,6.46-2.69,1.26-2.15,4.63-6.46,8.08-6.46.54,0,1.72.43,2.15,2.15,12.2-6.46,37.37-19.49,40.38-19.92,3.77-.54,14,7,14.54,17.23-1.08,2.51-3.66,7.97-5.38,9.69,1.26,3.77,6.57,12.38,17.77,16.69,14,5.38,37.69,12.38,75.92-2.15,8.08-5.38,21.52-20.46,28.54-20.46,8.61,0,9.96,6.46,11.31,9.15,2.51,5.03,7.54,17.01,7.54,24.77,3.41,10.23,8.94,33.71,3.77,45.77,3.02,4.31,1.97,8.61,1.08,10.23.86,2.15.36,17.77,0,25.31-5.6,9.91-27.1,10.23-37.15,9.15-34.46-1.29-190.25-2.33-263.83-2.69-45.66-4.31-66.05-19.38-70.53-26.38Z"/>
</svg>