<?xml version="1.0" encoding="UTF-8"?>
<svg id="_12" data-name="12" xmlns="http://www.w3.org/2000/svg" viewBox="0 0 306.46 487.38">
  <defs>
    <style>
      .cls-1 {
        fill: none;
        stroke: #000;
        stroke-miterlimit: 10;
        stroke-width: 3px;
      }
    </style>
  </defs>
  <path class="cls-1" d="M188.26,343.35c-3.46.63-7.98,1.35-12.4,1.83,1.52,24.76,1.28,57.29-4.46,94.13,51.31-8.35,98.17-15.89,83.78-13.21-19.29,3.59-195.75,54.37-195.75,54.37l1.35-23.11s45.76-7.51,93.16-15.23c2.5-13.12,10.77-58.76,12.18-96.53-5.23-.18-11.37-1.03-16.21-1.84-5.36-.9-10.82.65-15.8,2.87-38.7,17.25-120.61-28.38-125.75-93.19-4.24-22.86-3.99-68.63,26.24-113.22,1.09-1.61,1.94-3.34,2.52-5.2C51.5,88.43,90.92,2.7,140.96,11.68c41.37,7.44,61.96,26.29,70.04,39.62,2.96,4.87,6.92,9.35,12.02,11.91,111.51,56.24,107.73,335.79-22.93,281.53-3.68-1.53-7.91-2.11-11.83-1.4Z"/>
</svg>