<svg width="347" height="344" viewBox="0 0 347 344" fill="none" xmlns="http://www.w3.org/2000/svg">
<path d="M346.3 157.725C348.607 248.445 240.264 300.679 177.728 318.072C175.77 318.617 173.836 318.344 172.221 317.493C171.123 323.804 170.187 328.95 169.51 332.592C168.839 336.206 165.747 338.788 162.073 338.903L15.2934 343.52C11.0122 343.654 7.40943 340.401 7.18407 336.124C1.74874 232.955 -5.18921 39.4222 5.93114 3.8916C6.74021 1.30659 9.23613 0 11.9448 0H161.874C165.638 4.16254e-05 168.866 2.62192 169.558 6.32227C170.29 10.2366 171.313 15.825 172.509 22.6787C236.268 31.6607 344.027 68.3063 346.3 157.725Z" fill="black"/>
<path d="M115.86 237.327L116.974 235.143L121.646 237.527C122.161 237.79 122.602 237.9 122.953 237.888C123.311 237.86 123.633 237.604 123.888 237.103C124.399 236.102 124.017 235.277 122.773 234.642L118.375 232.398L119.474 230.244L124.236 232.674C124.722 232.922 125.132 233.017 125.483 233.004C125.841 232.977 126.14 232.728 126.372 232.273C126.906 231.226 126.486 230.362 125.121 229.666L120.875 227.499L121.973 225.345L129.8 229.339L128.755 231.386L127.678 230.837C128.218 231.877 128.232 232.935 127.698 233.982C127.149 235.059 126.33 235.577 125.279 235.538C125.811 236.594 125.818 237.667 125.261 238.759C124.827 239.609 124.229 240.145 123.496 240.344C122.763 240.544 121.972 240.446 121.123 240.013L115.86 237.327ZM113.673 247.609C112.947 246.933 112.527 246.145 112.405 245.261C112.267 244.369 112.434 243.479 112.899 242.569C113.51 241.371 114.369 240.586 115.499 240.245C116.614 239.896 117.785 240.035 119.029 240.67C120.243 241.289 121.058 242.163 121.467 243.309C121.885 244.44 121.799 245.581 121.211 246.734C120.607 247.917 119.718 248.648 118.558 248.936C117.398 249.223 116.128 249.015 114.763 248.319L114.551 248.21L117.414 242.598C116.732 242.25 116.131 242.154 115.62 242.294C115.093 242.427 114.694 242.797 114.4 243.373C114.013 244.132 114.121 244.856 114.725 245.546L113.673 247.609ZM117.038 246.707C117.577 246.925 118.072 246.967 118.552 246.849C119.025 246.746 119.393 246.437 119.657 245.922C119.896 245.451 119.931 244.972 119.79 244.499C119.626 244.033 119.302 243.619 118.787 243.28L117.038 246.707ZM106.841 255.004L107.963 252.805C108.191 252.845 108.48 252.916 108.799 253.04C108.464 252.048 108.579 251.036 109.105 250.004C109.546 249.14 110.092 248.558 110.772 248.274C111.444 248.005 112.152 248.042 112.895 248.421C113.229 248.591 113.494 248.784 113.705 249.006C113.901 249.221 114.044 249.466 114.126 249.756C114.192 250.038 114.235 250.29 114.264 250.534C114.277 250.77 114.244 251.059 114.165 251.401C114.064 251.751 113.993 252.039 113.93 252.237C113.86 252.449 113.766 252.746 113.634 253.118C113.338 253.923 113.189 254.477 113.178 254.797C113.153 255.109 113.296 255.354 113.599 255.509C114.297 255.865 114.885 255.572 115.365 254.632C115.621 254.132 115.715 253.721 115.649 253.401C115.591 253.065 115.365 252.759 114.956 252.474L115.986 250.456C117.683 251.475 117.951 253.122 116.775 255.428C115.614 257.703 114.185 258.407 112.486 257.54L109.104 255.815C108.103 255.304 107.358 255.039 106.841 255.004ZM111.855 254.581C111.827 254.261 111.939 253.667 112.204 252.847C112.438 252.164 112.511 251.685 112.46 251.41C112.386 251.105 112.175 250.844 111.841 250.674C111.523 250.511 111.211 250.486 110.92 250.606C110.63 250.725 110.392 250.967 110.206 251.331C109.912 251.907 109.824 252.455 109.949 252.958C110.075 253.462 110.429 253.853 110.975 254.132L111.855 254.581ZM102.351 263.805L103.465 261.62L108.03 263.95C108.576 264.228 109.048 264.354 109.429 264.319C109.81 264.284 110.147 263.997 110.41 263.482C110.991 262.344 110.579 261.427 109.214 260.731L105.013 258.587L106.104 256.448L113.93 260.442L112.886 262.489L111.793 261.932C112.333 263.01 112.332 264.099 111.775 265.191C111.349 266.025 110.766 266.569 110.033 266.807C109.3 267.044 108.478 266.931 107.583 266.474L102.351 263.805ZM111.194 273.148L109.374 272.22L110.472 270.066L112.293 270.995L111.194 273.148ZM108.221 271.632L100.395 267.638L101.494 265.485L109.32 269.478L108.221 271.632ZM95.7684 276.705L96.8828 274.521L101.448 276.851C101.994 277.129 102.465 277.255 102.846 277.22C103.227 277.185 103.565 276.898 103.828 276.383C104.408 275.245 103.997 274.328 102.632 273.632L98.4305 271.488L99.5216 269.349L107.348 273.343L106.303 275.39L105.211 274.833C105.751 275.911 105.749 277 105.192 278.092C104.767 278.926 104.183 279.47 103.45 279.707C102.717 279.945 101.896 279.832 101.001 279.375L95.7684 276.705ZM98.9378 289.826L91.9154 286.243C90.6414 285.593 89.8635 284.794 89.5818 283.848C89.3002 282.901 89.4921 281.776 90.1499 280.487C91.2952 278.242 92.7333 277.446 94.4645 278.062L93.3734 280.201C92.9859 280.099 92.6429 280.134 92.3597 280.314C92.0842 280.48 91.8074 280.797 91.5675 281.267C91.2271 281.935 91.1617 282.475 91.3716 282.888C91.5892 283.286 92.0278 283.662 92.7177 284.033L93.5897 284.497C93.0876 283.496 93.0883 282.483 93.599 281.482C94.1253 280.451 94.8842 279.825 95.8915 279.574C96.8987 279.323 97.9861 279.515 99.154 280.111C100.352 280.722 101.153 281.513 101.556 282.521C101.967 283.515 101.905 284.535 101.379 285.566C101.1 286.112 100.77 286.498 100.387 286.761C100.004 287.025 99.5228 287.181 98.9282 287.259L99.9748 287.793L98.9378 289.826ZM99.4399 285.208C99.734 284.631 99.7612 284.091 99.5294 283.571C99.2976 283.051 98.8215 282.598 98.0935 282.227C97.411 281.878 96.7798 281.767 96.2001 281.891C95.6203 282.016 95.1835 282.348 94.9049 282.894C94.6186 283.455 94.6065 284.003 94.8535 284.531C95.108 285.081 95.5918 285.519 96.2895 285.875C96.9871 286.231 97.6105 286.358 98.1751 286.225C98.732 286.108 99.1536 285.769 99.4399 285.208ZM98.8358 297.369L97.2584 296.564C97.5057 296.117 97.637 295.897 97.6524 295.867C97.8536 295.472 97.9245 295.184 97.8803 295.008C97.836 294.833 97.6546 294.664 97.3361 294.501L96.7143 294.184L95.9327 295.716L94.4766 294.973L95.2505 293.456L88.8803 290.206L89.9792 288.052L96.3494 291.302L96.9994 290.028L98.4554 290.771L97.8054 292.045L98.2149 292.254C99.1249 292.718 99.6917 293.256 99.8845 293.89C100.085 294.508 99.9492 295.299 99.4539 296.27C99.3998 296.376 99.3227 296.49 99.2608 296.611C99.1989 296.732 99.1063 296.876 99.0289 297.028C98.9364 297.172 98.8822 297.278 98.8358 297.369ZM91.7151 303.982L83.8888 299.989L84.9335 297.941L86.0407 298.506C85.4554 297.443 85.4489 296.369 86.0061 295.277C86.4472 294.412 87.0152 293.861 87.733 293.616C88.4508 293.37 89.2646 293.499 90.1898 293.971L95.4528 296.656L94.3462 298.825L89.8719 296.542C89.5685 296.387 89.341 296.271 89.1435 296.209C88.9461 296.146 88.756 296.107 88.5276 296.105C88.3069 296.088 88.1007 296.155 87.9169 296.29C87.733 296.426 87.5788 296.653 87.4241 296.956C86.8514 298.079 87.2854 299.026 88.7717 299.785L92.8062 301.843L91.7151 303.982ZM92.7162 309.363L81.9172 303.853L83.0161 301.699L93.8151 307.209L92.7162 309.363Z" fill="white"/>
<path d="M72.3774 267.727C77.2305 273.939 66.7963 283.257 60.9726 287.14C59.8402 288.191 62.2914 290.025 73.1053 299.758C77.9583 304.126 66.7961 312.619 51.2664 305.339C29.5245 290.003 40.3467 273.308 51.2664 266.271C56.2813 264.168 67.5243 261.515 72.3774 267.727Z" fill="white" stroke="black" stroke-width="0.47298"/>
<path d="M69.4592 189.591C83.2705 188.963 95.5803 204.471 102.567 216.803C105.493 221.967 104.828 227.121 99.1878 225.276C91.5571 222.781 79.4307 217.961 69.4592 220.408C56.6025 223.562 61.209 251.225 51.9881 253.166C42.7672 255.108 36.2155 232.055 34.2742 228.416C32.333 224.776 16.5604 220.651 18.0163 216.525C19.4723 212.4 48.1056 190.561 69.4592 189.591Z" fill="white" stroke="black" stroke-width="0.47298"/>
</svg>
