<svg width="749" height="631" viewBox="0 0 749 631" fill="none" xmlns="http://www.w3.org/2000/svg">
<rect y="48.289" width="749" height="477.849" fill="black"/>
<path d="M546.811 381.327C549.328 384.473 550.982 389.756 552.031 396.155C553.084 402.576 553.54 410.203 553.608 418.111C553.733 432.754 552.523 448.406 551.27 459.237C580.045 455.78 605.513 454.677 616.334 458.644C581.885 466.75 494.41 481.611 450.166 495.121V477.896C470.594 472.512 503.051 465.984 534.272 461.488C536.6 457.795 538.894 452.172 540.382 444.216C542.825 431.155 543.085 411.885 537.825 384.774L537.744 384.359L538.14 384.211L546.246 381.172L546.585 381.044L546.811 381.327Z" fill="#F8F8F7"/>
<path d="M506.785 91.0659C516.815 84.167 527.705 80.7627 539.227 82.8471C576.304 89.5551 595.163 106.395 602.879 118.7C605.888 123.499 609.808 127.9 614.77 130.481C640.052 143.63 658.745 169.432 670.732 199.903C682.721 230.38 688.025 265.587 686.485 297.638C684.946 329.674 676.565 358.638 661.101 376.563C653.361 385.534 643.841 391.746 632.522 394.174C621.206 396.602 608.137 395.239 593.311 389.143C589.665 387.644 585.516 387.071 581.658 387.764C576.665 388.661 569.533 389.745 564.083 389.772C559.19 389.796 552.992 388.983 548.057 388.172C542.778 387.306 537.384 388.854 532.338 390.966C523.332 394.736 511.965 394.909 499.948 392.163C487.924 389.414 475.205 383.735 463.464 375.747C439.999 359.781 420.35 334.526 418.008 304.862C414.142 283.861 414.376 241.918 441.825 201.011C442.881 199.438 443.706 197.742 444.261 195.936C450.839 174.543 463.098 144.25 479.414 120.323C487.571 108.359 496.761 97.9603 506.785 91.0659Z" fill="#F8F8F7"/>
<path d="M186.694 0.504181L331.16 616.151L335.605 629.486C376.352 608.002 454.734 565.477 460.068 562.81C465.402 560.143 465.995 553.549 465.625 550.586L382.279 51.6229C380.797 41.6214 375.611 20.5071 366.721 16.062C356.942 4.50477 242.629 0.874606 186.694 0.504181Z" fill="black" stroke="black"/>
<path d="M201.851 66.0695H20.0029V506.135H304.49" stroke="#F8F8F7"/>
</svg>
