<svg width="35" height="129" viewBox="0 0 35 129" fill="none" xmlns="http://www.w3.org/2000/svg">
<path d="M33.2441 39.0441C33.2441 39.0441 33.2441 84.0441 33.2441 111.244C33.2441 120.108 25.5638 127.244 17.2441 127.244C8.92444 127.244 1.24438 120.108 1.24435 111.244C1.24426 81.6441 1.24407 43.6444 1.24417 14.0442C1.24418 9.44409 6.68788 1.24417 14.3842 1.24417C22.0805 1.24417 27.8996 7.64418 27.8996 14.0442C27.8996 14.0442 27.7121 64.6442 27.7121 94.0442C27.7121 100.536 23.3368 104.639 17.2441 104.744C11.044 104.851 6.57748 100.651 6.57747 94.0442C6.57746 81.4442 6.57747 39.0441 6.57747 39.0441" stroke="black" stroke-width="2.48832"/>
</svg>
