<svg width="62" height="455" viewBox="0 0 62 455" fill="none" xmlns="http://www.w3.org/2000/svg">
<path d="M45.3828 436.34C48.7811 425.366 52.5869 412.044 55.6279 399.235C57.7742 390.195 59.5469 381.384 60.5264 373.822C61.4982 366.319 61.7176 359.851 60.625 355.606C57.5365 343.609 53.2887 331.997 50.2783 324.568L50.5088 319.31H48.9375V6.47623L48.1611 6.09048V6.08951H48.1602L48.1504 6.08463C48.1438 6.08141 48.134 6.07684 48.1221 6.07095C48.0978 6.05903 48.0623 6.04146 48.0166 6.0192C47.9249 5.97458 47.7906 5.90963 47.6182 5.82779C47.2732 5.66401 46.7737 5.43099 46.1504 5.15201C44.9044 4.59432 43.1573 3.84999 41.1523 3.10123C37.1864 1.62019 32.0428 0.0581543 27.749 0.00161743C23.2572 -0.0574795 17.8554 1.50609 13.6875 3.01431C11.5802 3.77686 9.7434 4.54291 8.43262 5.11783C7.77677 5.40549 7.25071 5.64569 6.8877 5.81509C6.70629 5.89978 6.56525 5.96711 6.46875 6.01334C6.42062 6.03637 6.38293 6.05369 6.35742 6.06607L6.32031 6.08463C6.31939 6.08509 6.31803 6.08532 6.31738 6.0856V6.08658H6.31641L5.53223 6.47037V319.31H0V447.068L44.5664 454.991L45.3828 436.34Z" fill="black"/>
</svg>
