<svg width="489" height="489" viewBox="0 0 489 489" fill="none" xmlns="http://www.w3.org/2000/svg">
<path d="M49.9633 463.501L1.6868 469.389L0.839844 467.707V21.9211L49.9633 26.1266L54.1981 23.6033V21.9211L73.6781 0.893433L115.179 6.78117L96.5459 28.6499V32.0143L135.506 35.3787H189.711V30.3321H487.84V456.773H392.981L392.134 457.614H294.734H292.193H188.864V453.408L137.2 452.567L94.852 457.614L115.179 482.847L72.8312 487.893L49.9633 463.501Z" fill="black" stroke="black" stroke-width="1.68"/>
<path d="M240.648 327.011V250.806H233.753V237.017H262.662V250.806H255.768V327.011H240.648ZM279.951 248.387V274.635H281.161C282.37 274.635 282.854 273.909 282.854 272.579V250.443C282.854 248.992 282.612 248.387 281.282 248.387H279.951ZM279.951 287.457V327.011H264.589V237.017H288.418C293.741 237.017 297.974 240.404 297.974 247.782V268.95C297.974 274.998 295.071 277.538 292.531 278.627C295.071 279.716 298.216 282.377 298.216 286.973V322.656C298.216 324.35 298.458 325.801 298.942 326.648V327.011H283.822C283.217 326.285 282.854 324.834 282.854 323.261V289.513C282.854 288.304 282.612 287.457 281.161 287.457H279.951ZM317.676 297.618L315.861 263.386L314.047 297.618H317.676ZM319.248 327.011L318.401 310.802H313.2L312.353 327.011H299.169L306.668 237.017H326.022L334.126 327.011H319.248ZM334.992 237.017H350.475L356.402 285.764L356.281 237.017H368.982V327.011H354.829L347.693 273.063L347.814 327.011H334.992V237.017Z" fill="white"/>
<path d="M330.223 419.292V343.087H323.328V329.298H352.238V343.087H345.343V419.292H330.223ZM369.526 329.298V419.292H354.164V329.298H369.526ZM371.647 329.298H397.532V343.087H386.646V364.981H395.839V379.254H386.646V405.261H397.895V419.292H371.647V329.298ZM399.879 329.298H415.362L421.289 378.045L421.168 329.298H433.869V419.292H419.716L412.58 365.344L412.701 419.292H399.879V329.298Z" fill="white"/>
</svg>
