<svg width="398" height="191" viewBox="0 0 398 191" fill="none" xmlns="http://www.w3.org/2000/svg">
<path d="M135.72 1.49377H58.499L2.33838 54.2668V131.667L58.499 186.786H135.72L189.54 131.667V54.2668L135.72 1.49377Z" fill="black"/>
<path d="M128.416 127.569L63.4683 62.6218" stroke="white" stroke-width="0.995328"/>
<path d="M63.4683 127.569C88.4589 102.579 103.425 87.6125 128.416 62.6218" stroke="white" stroke-width="0.995328"/>
<rect x="63.9659" y="63.1195" width="63.9523" height="63.9523" stroke="white" stroke-width="0.995328"/>
<path d="M57.7383 186.786C117.635 170.206 128.417 141.782 128.417 127.569" stroke="white" stroke-width="0.995328"/>
<path d="M136.057 186.787C121.884 180.073 112.982 176.309 98.8081 169.595" stroke="white" stroke-width="0.995328"/>
<path d="M189.543 131.39C173.085 73.7539 142.522 63.577 128.416 63.577" stroke="white" stroke-width="0.995328"/>
<path d="M189.543 54.9805L173.306 93.1851" stroke="white" stroke-width="0.995328"/>
<path d="M2.34103 54.0244C18.7984 112.564 49.362 127.568 63.4683 127.568" stroke="white" stroke-width="0.995328"/>
<path d="M0.428928 132.345C7.88882 119.663 13.9815 110.643 21.4414 97.9612" stroke="white" stroke-width="0.995328"/>
<path d="M136.057 1.4946C78.1241 17.9519 63.4686 48.5155 63.4686 62.6218" stroke="white" stroke-width="0.995328"/>
<path d="M57.737 1.49659C72.0909 8.07885 77.7672 14.9717 92.1211 21.554" stroke="white" stroke-width="0.995328"/>
<path d="M301.928 0C354.671 4.53563e-05 397.428 42.7569 397.428 95.5C397.428 148.243 354.671 191 301.928 191C249.185 191 206.428 148.243 206.428 95.5C206.428 42.7569 249.185 0 301.928 0ZM301.929 83.2578C295.167 83.2578 289.686 88.739 289.686 95.501C289.686 102.263 295.167 107.744 301.929 107.744C308.691 107.744 314.172 102.263 314.172 95.501C314.172 88.7391 308.691 83.2578 301.929 83.2578Z" fill="black"/>
<circle cx="301.926" cy="95.4999" r="28.8869" stroke="white" stroke-width="0.995328"/>
</svg>
