<svg width="514" height="223" viewBox="0 0 514 223" fill="none" xmlns="http://www.w3.org/2000/svg">
<rect width="617.767" height="222.953" fill="black"/>
<mask id="mask0_1179_738" style="mask-type:luminance" maskUnits="userSpaceOnUse" x="97" y="143" width="53" height="55">
<path d="M149.292 143.991H97.542V197.557H149.292V143.991Z" fill="white"/>
</mask>
<g mask="url(#mask0_1179_738)">
<path d="M113.641 144.17C114.068 144.241 114.282 144.526 114.745 144.455C115.03 144.455 115.279 144.454 115.564 144.49C115.778 144.49 115.956 144.597 116.134 144.704C116.347 144.811 116.597 144.918 116.775 145.024C117.167 145.487 117.238 146.2 117.523 146.77C117.63 147.054 117.843 147.268 117.986 147.517C118.306 148.123 118.449 148.871 118.449 149.619C118.449 150.616 118.378 151.72 117.737 152.504C117.523 152.824 117.309 153.145 117.06 153.465C116.775 153.786 116.454 154.035 116.276 154.391C115.742 155.246 116.098 155.78 117.095 155.531C117.843 155.424 118.556 155.139 119.304 155.139C121.191 155.139 123.079 155.104 125.002 155.068C125.821 155.068 126.712 155.282 127.46 155.46C127.673 155.531 127.887 155.46 128.065 155.495C128.35 155.567 128.671 155.602 128.991 155.638C130.736 155.852 131.484 155.531 132.553 157.169C133.087 157.775 133.514 158.345 133.906 159.021C134.12 159.306 134.369 159.591 134.547 159.876C135.117 161.087 135.794 162.298 136.826 163.188C137.218 163.651 137.574 164.364 137.396 164.934C137.289 165.218 137.005 165.254 136.755 165.503C136.363 165.86 136.15 166.429 135.651 166.572C135.224 166.572 134.725 166.465 134.369 166.216C133.977 166.002 133.585 165.788 133.336 165.396C132.873 164.613 133.692 163.723 133.443 162.939C133.194 162.227 132.731 162.084 132.232 161.657C131.84 161.194 131.377 160.802 130.914 160.375C130.522 159.983 130.166 159.591 129.703 159.306C128.67 158.808 127.495 159.413 126.498 159.734C125.786 159.947 125.073 160.125 124.361 160.41C124.076 160.517 123.791 160.588 123.613 160.802C122.972 161.479 123.399 162.547 123.969 163.117C124.219 163.438 124.539 163.509 124.86 163.829C125.429 164.328 126.106 164.755 126.747 165.112C127.175 165.325 127.673 165.432 128.136 165.503C128.706 165.646 129.49 165.646 129.917 166.109C130.522 166.892 130.238 168.21 130.558 169.136C130.629 169.421 130.807 169.635 130.986 169.813C131.235 170.098 131.484 170.49 131.698 170.81C131.911 171.131 132.125 171.451 132.339 171.772C132.659 172.128 133.051 172.413 133.301 172.805C133.977 173.695 134.511 174.657 135.331 175.405C135.9 175.939 136.364 176.544 137.005 176.936C137.503 177.256 138.144 177.078 138.572 176.722C138.999 176.402 139.426 176.117 139.925 175.903C140.459 175.689 140.958 175.44 141.421 175.155C142.133 174.87 142.739 174.407 143.202 173.873C143.38 173.624 143.593 173.481 143.807 173.268C143.985 172.983 144.199 172.662 144.519 172.484C144.982 172.199 145.445 171.879 146.015 171.879C146.407 171.985 146.728 172.27 146.977 172.591C148.152 174.015 148.01 175.048 148.508 176.651C148.758 177.435 149.043 178.218 149.292 178.966C149.47 179.393 149.47 179.785 149.292 180.248C149.043 181.103 148.045 181.317 147.476 180.676C147.119 180.035 146.514 179.607 146.122 179.002C144.804 177.15 142.632 179.251 141.563 180.355C141.136 180.818 140.566 181.139 140.032 181.459C139.426 181.851 138.821 182.278 138.216 182.634C137.895 182.848 137.503 182.955 137.147 183.133C136.506 183.525 135.794 183.81 135.046 183.881C133.407 183.881 132.303 182.706 130.95 181.958C130.594 181.708 130.202 181.566 129.846 181.388C129.525 181.174 129.205 181.032 128.884 180.925C127.887 180.391 127.353 180.035 126.177 180.035C125.038 180.035 123.862 179.928 122.865 180.462C122.438 180.747 121.939 180.996 121.476 181.21C121.156 181.424 120.942 181.602 120.621 181.78C120.23 182.1 119.767 182.421 119.339 182.777C118.769 183.169 118.164 183.489 117.594 183.881C116.989 184.415 116.49 185.021 115.92 185.591C115.493 186.125 115.137 186.766 114.745 187.336C114.317 187.906 113.854 188.44 113.498 189.045C113.213 189.366 112.928 189.829 112.75 190.221C112.394 190.826 111.789 191.289 111.29 191.716C110.934 192.001 110.898 192.358 110.613 192.714C110.293 193.141 109.937 193.497 109.652 193.96C108.69 195.242 108.298 197.629 106.304 197.664C105.627 197.664 104.986 197.344 104.416 196.988C103.989 196.81 103.49 196.56 103.134 196.382C102.529 196.168 102.101 195.99 101.531 195.634C100.961 195.314 100.392 194.993 99.8574 194.601C99.5368 194.388 99.3232 194.067 99.0383 193.818C98.2547 193.177 98.1478 192.322 99.2875 192.073C100.142 191.895 100.855 192.464 101.674 192.536C102.6 192.571 103.775 192.642 104.737 192.464C105.52 192.322 106.161 191.823 106.802 191.396C107.372 190.933 107.907 190.363 108.263 189.758C108.476 189.33 108.548 188.76 108.833 188.297C109.046 187.834 109.189 187.158 109.402 186.73C109.545 186.41 109.723 186.267 109.83 185.947C109.901 185.662 109.972 185.341 110.008 185.056C110.15 184.308 110.4 183.56 110.685 182.919C110.863 182.456 111.041 182.136 111.361 181.78C111.646 181.424 111.931 181.067 112.216 180.676C112.572 180.213 112.857 179.678 113.213 179.18C113.534 178.824 113.89 178.503 114.175 178.147C114.46 177.791 114.709 177.363 114.994 177.007C115.35 176.509 115.706 176.081 116.098 175.618C116.419 175.298 116.81 174.906 117.131 174.55C117.523 174.158 117.701 173.588 117.452 173.054C117.131 172.413 116.526 171.914 116.027 171.416C115.35 170.739 114.709 170.062 114.032 169.421C113.071 168.424 112.145 167.462 110.685 167.32C110.222 167.249 109.865 167.498 109.367 167.462C108.797 167.462 108.405 167.142 107.835 167.035C107.301 166.964 106.553 167.035 106.019 167.142C105.627 167.249 105.307 167.427 104.879 167.462C103.241 167.711 101.887 167.712 100.961 166.144C100.641 165.717 100.392 165.254 100.107 164.827C99.7506 164.364 99.5369 163.865 99.3232 163.331C98.967 162.262 98.789 162.262 98.0054 161.55C97.6493 161.301 97.5781 160.909 97.6137 160.482C97.6137 160.125 97.7561 159.805 97.9698 159.52C98.3259 159.128 98.5397 158.558 98.7178 158.024C98.8246 157.81 98.7534 157.312 99.0383 157.49C99.5369 157.775 100.142 157.953 100.605 158.309C101.425 158.986 101.211 160.268 101.46 161.194C101.567 161.692 101.816 161.942 102.208 162.155C102.564 162.369 102.849 162.583 103.277 162.725C104.274 163.153 105.378 162.832 106.197 162.227C106.802 161.871 107.265 161.408 107.764 160.945C108.476 160.161 109.26 159.484 110.008 158.736C110.293 158.38 110.471 157.917 110.186 157.561C110.079 157.419 109.865 157.347 109.652 157.312C109.26 157.241 108.69 157.169 108.263 157.169C107.515 157.134 106.09 157.276 105.627 156.706C104.915 155.994 104.666 155.531 104.666 154.427C104.666 153.572 104.666 152.539 104.737 151.72C104.737 151.221 105.057 151.008 105.164 150.545C105.342 150.117 105.52 149.654 105.698 149.156C105.983 148.55 106.233 147.98 106.411 147.375C106.517 146.948 106.411 146.485 106.304 146.057C106.197 145.665 105.983 145.202 106.411 144.917C106.802 144.704 107.408 144.704 107.907 144.704C108.512 144.704 109.153 144.704 109.794 144.633C110.506 144.526 110.863 144.241 111.504 144.134C112.216 143.992 113.071 144.134 113.748 144.241L113.641 144.17ZM117.594 152.61C117.594 152.61 117.131 152.539 117.131 152.789C117.131 152.895 117.274 153.038 117.416 153.038C117.594 153.038 117.808 152.789 117.63 152.646L117.594 152.61ZM116.917 153.287C116.917 153.287 116.526 153.287 116.49 153.465C116.49 153.608 116.632 153.715 116.739 153.715C116.917 153.715 117.095 153.43 116.917 153.287ZM110.471 158.736C110.471 158.736 110.257 158.63 110.15 158.701C110.079 158.736 110.008 158.772 110.008 158.879C110.008 158.986 110.186 159.093 110.328 159.057C110.471 159.057 110.613 158.879 110.471 158.772V158.736ZM130.202 159.164C130.202 159.164 129.775 159.057 129.668 159.199C129.668 159.271 129.846 159.342 129.988 159.342C130.06 159.342 130.309 159.271 130.202 159.164ZM130.807 159.769C130.807 159.769 130.594 159.662 130.487 159.734C130.416 159.734 130.344 159.805 130.344 159.876C130.344 159.947 130.523 160.054 130.665 160.019C130.772 160.019 130.95 159.876 130.807 159.769ZM134.476 160.125C134.476 160.125 134.262 160.125 134.227 160.197C134.227 160.303 134.333 160.41 134.405 160.375C134.511 160.339 134.583 160.197 134.476 160.125ZM131.484 160.446C131.484 160.446 131.27 160.339 131.164 160.41C131.092 160.41 131.021 160.482 131.021 160.553C131.021 160.624 131.199 160.731 131.342 160.695C131.448 160.695 131.627 160.553 131.484 160.482V160.446ZM131.84 161.087C131.84 161.087 131.84 161.336 131.947 161.408C132.054 161.443 132.196 161.301 132.161 161.194C132.125 161.051 131.947 160.98 131.84 161.087ZM132.553 161.764C132.553 161.764 132.481 162.084 132.659 162.12C132.766 162.12 132.873 162.013 132.873 161.906C132.873 161.764 132.695 161.621 132.553 161.764ZM99.9642 163.758C99.9642 163.758 99.5725 163.758 99.5369 163.936C99.5369 164.043 99.6793 164.186 99.7862 164.186C99.9643 164.186 100.142 163.901 99.9642 163.758ZM115.742 176.152C115.742 176.152 115.6 176.366 115.635 176.509C115.635 176.58 115.635 176.651 115.706 176.687C115.742 176.687 115.778 176.687 115.778 176.615C115.849 176.473 115.813 176.259 115.778 176.152H115.742ZM115.065 176.829C115.065 176.829 114.923 177.043 114.958 177.185C114.958 177.257 114.958 177.328 115.03 177.363C115.065 177.363 115.101 177.363 115.101 177.292C115.172 177.15 115.136 176.936 115.101 176.829H115.065ZM148.402 176.9C148.223 176.722 147.974 176.9 147.939 177.078C147.939 177.221 148.081 177.363 148.223 177.363C148.437 177.363 148.615 177.043 148.402 176.9ZM149.114 179.002C149.114 179.002 148.793 178.895 148.687 179.002C148.544 179.144 148.722 179.358 148.936 179.322C149.114 179.322 149.292 179.109 149.114 178.966V179.002ZM129.49 180.711C129.49 180.711 129.24 180.604 129.133 180.64C128.849 180.747 128.955 180.925 129.24 180.925C129.418 180.925 129.596 180.818 129.49 180.676V180.711ZM138.607 182.029C138.607 182.029 138.287 181.922 138.18 182.029C138.037 182.171 138.251 182.385 138.429 182.35C138.572 182.35 138.785 182.136 138.607 181.993V182.029ZM132.553 182.67C132.553 182.67 132.481 182.991 132.659 183.026C132.766 183.026 132.873 182.919 132.873 182.813C132.873 182.67 132.695 182.528 132.553 182.67ZM135.829 183.276C135.829 183.276 135.58 183.276 135.544 183.418C135.509 183.596 135.687 183.81 135.829 183.667C135.936 183.56 135.936 183.382 135.829 183.276ZM116.917 183.988C116.917 183.988 116.526 183.988 116.49 184.166C116.49 184.273 116.632 184.415 116.739 184.415C116.917 184.415 117.06 184.13 116.917 183.988Z" fill="#F8F8F7"/>
</g>
<mask id="mask1_1179_738" style="mask-type:luminance" maskUnits="userSpaceOnUse" x="178" y="130" width="87" height="70">
<path d="M264.728 130.06H178.93V199.439H264.728V130.06Z" fill="white"/>
</mask>
<g mask="url(#mask1_1179_738)">
<path d="M217.035 191.105C217.107 190.749 216.893 189.859 217.035 189.61C217.249 189.289 219.6 188.719 220.277 188.327C220.419 188.256 222.378 186.333 222.449 186.19C222.77 185.371 222.057 185.549 222.093 185.193L222.485 184.517C221.309 183.769 220.205 184.41 219.137 184.41C218.531 184.41 218.033 184.232 217.427 184.232C216.323 184.232 211.373 184.196 210.767 184.552L210.304 187.508C209.77 189.004 209.2 190.429 208.417 191.996C207.562 193.741 204.962 195.985 202.896 197.125C202.219 197.481 200.759 198.3 200.225 198.514C199.156 198.941 198.195 198.727 197.233 198.977C197.091 199.012 197.198 199.333 196.841 199.368C196.129 199.475 193.707 199.511 192.995 199.44C192.639 199.404 192.746 199.083 192.568 199.048C192.176 198.977 191.677 199.155 191.285 199.048C191.143 199.048 191.179 198.692 191.036 198.692C185.48 197.588 182.417 194.275 180.245 189.075C180.173 188.862 179.497 187.758 179.461 187.651C179.319 187.152 179.532 186.475 179.425 186.012C179.39 185.87 179.069 185.977 179.034 185.621C178.927 184.944 178.891 182.807 178.962 182.166C178.998 181.81 179.319 181.917 179.354 181.739C179.461 181.24 179.212 180.563 179.354 180.1C179.461 179.673 180.138 178.177 180.387 177.5C181.74 174.081 183.984 171.552 187.332 169.807C191.677 167.564 194.989 167.35 200.082 168.525C200.261 168.561 200.154 169.131 200.937 168.81C201.436 168.596 202.255 166.032 202.576 165.427C202.967 164.607 203.608 163.788 204 163.04C204.499 162.079 205.496 159.408 206.422 158.98C207.063 158.695 207.633 158.945 208.167 158.802C208.31 158.802 208.203 158.482 208.559 158.41C209.521 158.232 209.342 158.766 209.699 158.802C211.729 159.016 214.827 157.912 216.537 157.199C217.32 156.879 217.819 156.736 217.962 155.668C218.246 153.353 218.033 150.717 218.211 148.402C218.282 147.583 218.745 146.622 219.422 146.159C219.707 145.98 220.027 146.016 220.205 145.909C220.597 145.66 220.953 145.197 221.452 144.876C221.63 144.77 222.592 144.485 222.734 144.271C223.09 143.737 223.197 142.027 222.841 141.457C222.627 141.101 221.024 140.068 220.597 139.783C219.92 138.501 218.781 136.934 218.994 135.403C219.101 134.619 220.205 132.162 220.953 131.805C221.737 131.877 222.235 131.236 222.876 131.057C224.871 130.416 226.367 130.666 228.361 130.523C229.145 130.452 229.964 129.918 230.712 130.31C230.783 130.452 230.783 131.271 230.748 131.485C230.748 131.663 230.427 131.663 230.391 131.77C230.142 132.304 230.178 133.016 230.284 133.622C230.32 133.871 231.104 135.438 231.282 135.581C231.638 135.937 232.35 135.866 232.421 136.649C232.528 137.682 232.065 137.433 232.03 137.789C231.852 139.427 232.706 140.994 230.961 142.241C230.961 142.668 232.991 142.917 233.49 143.06C233.953 143.238 236.375 144.556 236.873 144.948C236.98 145.019 236.98 145.375 237.265 145.624C238.44 146.622 240.221 146.55 241.646 146.337C244.103 145.909 246.668 145.019 248.413 143.701C249.802 142.633 250.229 141.849 252.153 142.811C252.758 143.096 253.506 144.841 253.257 145.553C252.758 147.085 251.69 146.978 250.265 147.191C247.487 147.619 246.988 147.832 244.531 148.901C243.925 149.15 241.005 150.432 240.364 150.432L237.194 150.504C236.945 151.073 237.194 151.358 237.443 151.857C238.334 153.495 239.58 154.706 240.542 156.131C240.684 156.309 241.29 157.52 241.325 157.627C241.325 157.947 240.755 158.303 240.649 158.802C240.506 159.443 240.791 160.12 240.471 160.761L242.394 161.26C242.607 162.684 243.142 164.607 241.753 165.462C241.86 165.783 242.786 167.742 242.928 167.813C243.071 167.884 244.068 167.884 244.281 167.813C244.424 167.777 244.388 167.492 244.531 167.421C253.15 165.07 260.308 169.487 263.585 177.18C264.618 179.602 265.081 183.306 264.44 186.297C264.44 186.44 264.084 186.404 264.084 186.582C263.086 191.604 258.919 195.949 253.791 197.694C251.013 198.62 248.627 198.692 245.599 198.3C242.75 197.374 239.58 195.949 237.265 193.563C237.087 193.349 237.087 192.993 236.945 192.922C236.838 192.851 236.517 192.922 236.446 192.886C236.339 192.779 236.446 192.423 236.339 192.21C236.304 192.103 235.769 191.853 235.698 191.711C234.38 189.716 233.882 187.58 233.276 185.371C233.098 184.801 233.454 184.018 232.386 184.232C231.175 184.445 230.534 186.155 228.682 185.264C228.254 185.051 228.148 184.374 227.649 184.445C227.898 185.336 227.293 185.158 227.293 185.229L227.4 190.785C227.4 190.785 227.186 190.785 227.079 190.856C226.972 190.963 227.044 191.177 227.008 191.177L217.071 191.355L217.035 191.105ZM223.446 155.81C222.129 155.383 222.413 156.131 221.986 156.772C221.594 157.342 221.024 158.019 220.561 158.553C217.677 162.079 213.225 160.975 209.592 162.292C209.414 162.364 209.449 162.613 209.307 162.649C208.986 162.755 207.669 162.933 207.562 163.112C207.277 164.322 207.918 164.536 208.986 164.607C213.438 164.928 218.567 164.216 223.055 164.251L227.613 160.155L227.435 159.692C226.652 159.301 223.838 155.953 223.446 155.81ZM220.277 167.67L210.34 167.848C210.268 168.49 210.411 168.953 210.696 169.522C211.622 171.303 213.082 173.369 214.079 175.007C215.005 176.539 215.825 178.284 216.786 179.744C216.929 179.958 217.214 180.065 217.32 180.35C218.14 179.993 219.885 176.61 220.419 175.648C220.49 175.506 221.131 174.651 221.167 174.58C221.274 174.188 220.918 173.689 221.523 173.761V173.583C220.775 173.191 219.707 172.229 219.6 171.41C219.386 169.985 220.241 169.024 220.277 167.67ZM206.101 168.347H204.784C204.962 169.202 203.893 169.487 204.036 170.52C205.14 171.552 206.493 172.514 207.419 173.689C208.345 174.865 209.022 176.289 209.342 177.678C209.414 177.999 210.34 179.815 210.518 180.243C210.589 180.421 210.518 180.67 210.518 180.848L212.797 180.777C213.403 179.815 212.655 179.566 212.477 179.21C211.123 176.467 209.485 174.081 207.989 171.659L206.066 168.311L206.101 168.347ZM239.545 168.561C238.725 168.027 235.52 167.955 234.594 168.205C234.451 168.205 234.452 168.49 234.416 168.525C234.202 168.632 233.917 168.561 233.775 168.668C233.632 168.774 231.46 170.983 231.353 171.125C231.246 171.268 231.068 171.339 231.175 171.517C231.353 172.194 232.778 172.657 233.276 173.013C233.632 173.262 234.309 174.01 234.736 174.117C235.769 174.402 235.484 173.796 235.734 173.476C236.232 172.906 236.945 172.407 237.301 171.659L240.043 169.237C240.186 169.024 239.723 168.632 239.58 168.561M255.109 171.552C252.081 170.021 247.985 169.131 244.851 170.698C244.638 171.232 245.136 171.232 245.172 171.303C246.311 173.761 247.594 175.933 248.947 178.391C249.054 178.569 249.731 179.388 249.766 179.53C250.051 180.278 250.621 183.021 249.873 183.484L237.051 183.697C236.41 183.982 236.375 185.158 236.517 185.763C236.588 186.048 237.443 187.508 237.621 187.864C241.432 195.522 250.906 197.374 257.459 191.711C261.84 187.936 262.944 180.919 259.846 175.898C259.418 175.221 258.563 174.829 258.706 174.046H257.958V173.298C257.103 173.547 256.818 172.585 256.248 172.194C256.035 172.051 255.394 171.659 255.144 171.517M198.836 171.552C198.195 170.947 194.028 170.947 193.031 171.054C188.65 171.481 184.376 175.292 182.987 179.245C181.171 184.41 182.666 189.645 186.691 193.1C187.154 193.492 187.154 193.599 187.439 193.883C187.546 193.99 190.003 195.201 190.288 195.308C195.987 197.303 201.507 195.557 204.997 190.963C206.244 189.325 207.989 186.262 206.992 184.232L195.061 184.445C195.025 182.415 194.598 181.311 195.381 179.388C196.094 177.607 197.304 175.898 198.124 174.259C198.444 173.618 199.477 172.158 198.836 171.588M236.767 180.421L245.777 180.278C245.813 179.815 245.777 179.424 245.599 178.996C245.457 178.604 244.709 177.75 244.531 177.393C243.818 176.04 243.106 174.651 242.358 173.404C241.931 172.728 242.144 172.122 240.934 172.585C240.791 172.657 238.868 174.722 238.725 174.936C238.049 175.898 236.909 178.355 236.731 179.53C236.695 179.887 236.731 180.1 236.838 180.456M199.05 181.062L206.885 180.919C207.063 178.925 205.282 176.254 204.036 174.722C203.608 174.224 202.255 173.191 201.863 174.081C201.151 175.684 199.335 178.284 198.943 179.922C198.836 180.421 198.943 180.634 199.085 181.062M228.29 177.215C228.076 177.999 228.504 179.673 228.361 180.563H229.679C229.857 179.637 230.676 178.177 230.035 177.358C229.715 176.93 228.504 176.467 228.29 177.215Z" fill="#F8F8F7"/>
</g>
<mask id="mask2_1179_738" style="mask-type:luminance" maskUnits="userSpaceOnUse" x="299" y="130" width="96" height="70">
<path d="M394.109 130.056H299.122V199.862H394.109V130.056Z" fill="white"/>
</mask>
<g mask="url(#mask2_1179_738)">
<path d="M349.841 130.238C351.052 130.63 352.014 131.413 352.762 132.411C353.26 133.337 353.616 134.512 353.688 135.616C353.723 136.613 353.118 137.504 352.904 138.43C352.405 139.712 351.871 141.172 353.866 141.136C355.041 140.994 356.288 140.709 357.427 140.495C358.531 140.211 359.814 139.997 360.918 140.211C362.271 140.46 363.446 140.887 364.8 141.172C365.654 141.493 366.545 141.778 367.364 142.169C368.361 142.561 369.394 142.81 370.32 143.345C371.709 144.235 372.884 145.446 373.846 146.764C375.128 148.758 375.662 151.109 376.375 153.353C376.802 154.386 377.443 155.205 378.084 156.095C380.435 158.802 377.942 161.865 375.734 158.303C374.879 156.024 374.523 153.602 373.205 151.501C372.208 150.076 371.567 148.295 370 147.334C368.361 145.98 367.044 147.156 365.192 146.764C363.482 146.514 364.087 148.082 364.657 148.972C365.085 149.72 365.405 150.575 365.939 151.251C366.972 152.712 368.468 153.673 369.465 155.205C370.178 156.416 371.389 157.199 372.208 158.339C372.635 159.016 372.493 159.764 372.279 160.476C372.137 160.974 372.065 161.865 372.065 162.542C372.065 163.681 372.03 164.928 372.35 165.961C372.671 166.922 373.098 167.706 373.205 168.774C373.383 169.487 373.419 170.234 373.739 170.911C374.202 171.766 374.986 172.906 376.125 172.585C377.301 172.086 378.298 171.267 379.402 170.626C380.791 169.558 382.964 169.843 384.317 168.703C385.528 167.919 386.134 166.388 387.665 166.139C389.125 165.925 390.265 167.1 391.191 168.026C392.544 169.202 393.292 170.982 394.076 172.55C394.468 173.44 393.684 174.117 392.829 173.689C392.153 173.404 391.689 172.728 391.155 172.265C390.265 171.552 388.84 171.588 387.807 171.41C385.706 171.054 384.566 173.262 383.035 174.259C382.429 174.651 381.86 175.149 381.219 175.47C380.471 175.862 379.687 176.111 378.975 176.538C378.12 177.251 377.408 178.034 376.41 178.64C373.347 180.777 372.635 180.492 370.106 177.892C369.572 177.393 368.895 177.037 368.539 176.36C367.791 175.363 367.435 174.01 366.331 173.297C364.764 172.336 363.339 173.297 362.271 174.473C361.345 175.434 360.383 176.325 359.457 177.251C358.424 178.284 358.033 179.174 357.855 180.599C357.712 181.703 357.427 182.451 357.32 183.662C357.214 185.371 357.463 187.188 357.142 188.861C356.822 190.393 356.074 191.853 355.825 193.349C355.682 194.845 356.43 196.768 355.504 198.122C354.934 198.62 354.151 198.549 353.225 198.62C352.405 198.62 351.729 198.869 350.981 199.048C349.984 199.261 348.844 199.261 347.811 199.119C346.849 198.976 346.351 198.3 345.389 198.371C344.926 198.371 344.926 198.086 345.46 197.801C346.28 197.409 347.384 197.16 348.203 196.768C349.342 196.127 350.269 195.165 350.945 194.097C351.586 192.993 350.945 191.675 351.159 190.535C351.266 189.93 351.159 189.253 351.301 188.683C351.408 188.042 351.551 187.615 351.515 186.903V176.432C351.515 176.004 351.586 175.541 351.836 175.256C352.69 174.188 353.474 173.013 354.471 172.051C355.148 171.303 355.646 170.377 356.323 169.629C357.035 168.917 357.712 168.062 358.211 167.172C359.03 166.067 359.279 164.607 358.531 163.396C357.498 161.615 356.216 160.048 354.721 158.624C353.688 157.448 352.299 156.594 350.945 157.876C350.162 158.731 349.806 159.835 349.378 160.903C348.595 164.002 347.348 163.966 344.428 163.931C343.039 164.002 342.219 163.574 341.186 162.755C340.047 162.079 339.085 161.224 339.406 159.799C339.548 159.158 339.869 158.624 340.51 158.695C342.006 158.766 342.291 160.69 343.573 161.153C344.677 161.437 346.493 160.939 346.351 159.55C346.422 157.164 346.244 151.786 346.458 149.293C346.743 148.26 347.49 147.405 347.882 146.372C348.452 145.232 347.882 144.271 346.564 144.627C345.567 144.912 344.534 144.876 343.715 144.199C342.754 143.345 341.863 142.169 341.4 140.994C341.008 139.854 341.293 138.038 341.044 136.827C340.937 136.043 340.332 135.687 339.869 135.117C338.8 133.728 340.082 132.909 341.365 132.411C342.754 131.698 344.214 131.129 345.71 130.666C347.028 130.096 348.559 129.704 349.984 130.131L349.841 130.238Z" fill="#F8F8F7"/>
<path d="M310.095 156.306C310.131 156.092 310.167 155.843 310.202 155.629C310.238 155.237 310.416 154.81 310.202 154.489C309.561 153.528 307.78 154.169 306.819 153.278C306.249 152.744 305.857 151.996 305.394 151.391C305.109 150.999 304.824 150.678 304.717 150.18C304.539 148.826 304.61 147.33 304.646 145.977C304.717 145.122 305.145 144.303 304.717 143.448C304.504 142.985 304.183 142.344 304.539 141.917C305.18 141.24 306.142 141.027 307.032 140.777C307.816 140.492 308.528 140.243 309.347 140.136C310.345 140.029 311.555 140.101 312.553 140.065C313.55 140.065 314.476 140.314 315.224 140.955C315.473 141.133 315.794 141.347 316.007 141.525C316.328 141.81 316.577 142.166 316.827 142.522C317.112 142.985 317.29 143.555 317.503 144.089C317.824 144.837 318.073 145.621 317.931 146.44C317.717 147.509 317.218 148.648 316.791 149.646C316.506 150.287 316.043 150.892 315.972 151.604C315.972 152.245 316.613 152.815 317.254 152.815C318.572 152.815 319.961 152.317 321.243 152.067C322.703 151.889 324.235 152.067 325.695 152.067C326.799 152.067 327.796 152.388 328.9 152.602C330.325 152.887 330.788 153.171 331.75 154.204C332.961 155.38 334.1 156.591 334.991 158.051C335.632 158.941 336.202 159.974 336.13 161.078C336.13 161.826 335.24 163.393 334.385 162.645C333.815 161.969 334.065 160.864 333.851 160.045C333.423 158.799 332.391 157.873 331.429 157.054C330.574 156.377 329.613 155.878 328.473 155.843C327.369 155.843 325.161 156.056 324.804 157.303C324.698 158.443 325.909 159.262 326.585 160.045C326.977 160.473 327.476 160.793 327.867 161.221C328.366 161.826 328.758 162.503 329.221 163.108C329.648 163.642 330.254 163.999 330.61 164.604C331.037 165.352 331.322 166.207 331.785 166.919C331.999 167.24 332.177 167.596 332.284 167.988C332.426 168.664 332.462 169.341 332.64 169.946C332.818 170.588 333.032 171.193 333.067 172.012C333.067 173.116 332.996 174.47 333.139 175.538C333.245 176.357 333.637 176.963 333.602 177.853C333.566 178.601 333.352 179.349 333.495 180.097C333.566 180.453 333.744 180.845 333.887 181.272C333.993 181.664 334.1 182.091 334.278 182.448C334.741 183.872 335.739 184.121 336.807 184.941C337.448 185.51 338.018 186.152 338.659 186.757C339.371 187.434 340.084 188.146 340.618 188.965C341.366 190.283 342.719 191.102 343.645 192.277C344.5 193.773 344.82 195.305 343.503 196.694C343.218 197.086 342.862 197.442 342.541 197.762C342.292 198.083 342.078 198.403 341.722 198.653C340.618 199.329 339.336 199.686 338.018 199.757C337.377 199.757 335.56 199.543 336.273 198.546C336.629 198.154 337.199 197.94 337.555 197.549C337.982 197.157 338.338 196.765 338.552 196.231C339.799 193.382 337.163 192.277 335.24 190.853C334.492 190.176 333.78 189.464 332.854 189.001C331.821 188.502 330.681 187.754 329.506 188.182C327.939 189.036 328.259 191.28 326.407 192.812C325.909 193.346 325.196 194.058 324.377 193.845C323.736 193.666 323.594 192.99 323.736 192.42C323.879 191.067 324.733 189.642 324.413 188.289C324.235 187.647 323.736 187.22 323.202 186.864C322.205 186.08 320.994 186.045 319.64 185.974C318.892 185.902 318.216 185.795 317.575 185.439C317.076 185.154 316.47 184.976 315.901 184.763C314.903 184.406 314.12 184.157 313.55 183.231C313.016 182.269 313.479 181.13 313.692 180.168C313.942 178.922 314.832 177.996 315.544 176.998C316.328 176.179 316.933 175.182 317.646 174.292C318.75 173.152 320.424 171.692 319.818 169.911C319.533 169.163 318.928 168.736 318.394 168.166C317.325 167.204 316.328 166.064 314.939 165.53C313.764 165.21 312.553 164.782 311.413 164.533C309.134 164.426 306.712 164.533 304.112 164.533C302.794 164.497 301.654 164.711 300.55 164.284C300.052 164.034 299.624 163.571 299.268 163.144C298.912 162.503 299.197 161.755 299.268 161.043C299.375 160.188 299.268 159.012 299.517 158.265C299.767 157.445 300.479 156.697 301.334 156.662C302.295 156.662 303.079 157.552 302.83 158.514C302.723 159.084 302.83 159.725 303.471 159.867C304.361 160.01 305.109 159.262 305.928 158.977C306.498 158.728 307.104 158.549 307.567 158.158C307.994 157.801 308.421 157.267 308.849 156.982C309.241 156.662 309.953 156.84 310.024 156.234L310.095 156.306ZM325.054 177.924C324.092 177.675 323.095 178.316 322.347 178.886C321.777 179.313 321.279 179.919 321.314 180.667C321.314 181.878 322.311 182.269 323.309 182.732C323.772 182.911 324.128 183.195 324.555 183.374C325.125 183.587 325.624 183.979 326.229 184.121C326.799 184.264 327.547 184.157 327.761 183.552C327.939 182.732 327.333 181.913 327.12 181.13C326.977 180.631 326.692 180.311 326.514 179.883C326.372 179.42 326.122 178.993 325.873 178.637C325.695 178.352 325.446 178.031 325.089 177.924H325.054Z" fill="#F8F8F7"/>
</g>
<path d="M427.328 222.953V0" stroke="white" stroke-width="1.85795" stroke-dasharray="7.43 7.43"/>
</svg>
