<svg width="1920" height="1452" viewBox="0 0 1920 1452" fill="none" xmlns="http://www.w3.org/2000/svg">
<g clip-path="url(#clip0_1123_297)">
<rect width="1920" height="1452" fill="#F8F8F7"/>
<path d="M1945 625.046L616.829 158.978L-49.6719 130" stroke="#B3B3B3" stroke-width="1.4"/>
<path d="M385.001 1491.98L324.63 912.414L356.023 641.95L-129.363 506.718" stroke="#B3B3B3" stroke-width="1.4"/>
<path d="M356.022 641.95L602.338 685.417V912.414L686.858 1463" stroke="#B3B3B3" stroke-width="1.4"/>
<path d="M602.34 912.414L1469.27 808.575L1604.51 506.718" stroke="#B3B3B3" stroke-width="1.4"/>
<path d="M807.602 1455.76L843.824 1298.79L807.602 1151.48L1186.73 1129.75L1413.73 1472.66" stroke="#B3B3B3" stroke-width="1.4"/>
<path d="M607.167 912.414H324.628L-18.2812 878.606" stroke="#B3B3B3" stroke-width="1.4"/>
<path d="M271.503 1470.25L247.354 1207.03L228.035 902.754" stroke="#B3B3B3" stroke-width="1.4"/>
<path d="M63.8248 1463L58.9951 883.435" stroke="#B3B3B3" stroke-width="1.4"/>
<path d="M158.005 1460.59L145.931 895.51" stroke="#B3B3B3" stroke-width="1.4"/>
<path d="M1338.87 1361.58L1932.92 1211.86" stroke="#B3B3B3" stroke-width="1.4"/>
<path d="M-52.0879 1204.61L247.354 1216.69L643.391 1192.54" stroke="#B3B3B3" stroke-width="1.4"/>
<rect x="958.941" y="-1072" width="1156.11" height="3203.58" fill="#050505"/>
<path d="M961.941 773.954L1117.85 976.936H1267.88L1310.54 932.809H1373.79L1504.7 1021.06H1576.77L1634.13 888.683H1925.37L2118.05 828.377" stroke="#696969" stroke-width="1.4"/>
<path d="M1538.53 406.234L1603.25 500.371H1972.44V926.926L1747.39 1281.41H1685.62L1584.12 1379.96H1434.09L1339.96 1453.5H1253.18L1150.21 1469.68" stroke="#696969" stroke-width="1.4"/>
<path d="M959.354 576.856H1291.77V145.889L1275.59 123.825V-114" stroke="#696969" stroke-width="1.4"/>
<path d="M959 287.093L1101.68 188.544L1148.74 240.025H1423.8V319.452L1531.17 403.293H1603.25L1656.2 350.341H1806.23" stroke="#696969" stroke-width="1.4"/>
<path d="M961.941 -788.12L1011.95 -698.396L1039.9 -389.512L1347.31 -30.617L1541.47 53.2231L1807.7 353.283H1962.14V476.837H2146" stroke="#696969" stroke-width="1.4"/>
<path d="M1725.33 2131.58L1567.94 1971.25V1859.46L1366.43 1732.97V1259.34L1157.57 975.465" stroke="#696969" stroke-width="1.4"/>
<path d="M961.941 1262.29L1026.66 1369.66H1079.61L1184.04 1516.75L1251.7 1525.57L1273.77 1637.36L1260.53 1666.78L1413.5 1781.51V1996.26L1450.27 2133.05" stroke="#696969" stroke-width="1.4"/>
</g>
<defs>
<clipPath id="clip0_1123_297">
<rect width="1920" height="1452" fill="white"/>
</clipPath>
</defs>
</svg>
